<svg version="1.1" xmlns="http://www.w3.org/2000/svg" viewBox="0 0 704 1257" width="704" height="1257"><!-- svg-source:excalidraw --><metadata></metadata><defs><style class="style-fonts">
      </style></defs><rect x="0" y="0" width="704" height="1257" fill="#ffffff"></rect><g transform="translate(32 32) rotate(0 320 20.799999999999997)"><text x="0" y="28.640625" font-family="Helvetica, sans-serif, Segoe UI Emoji" font-size="32px" fill="#27302b" text-anchor="start" style="white-space: pre;" direction="ltr" dominant-baseline="alphabetic">A goal, built one deposit at a time</text></g><g transform="translate(32 86) rotate(0 320 13)"><text x="0" y="17.900390625" font-family="Helvetica, sans-serif, Segoe UI Emoji" font-size="20px" fill="#27302b" text-anchor="start" style="white-space: pre;" direction="ltr" dominant-baseline="alphabetic">NabungFi Â· owner-approved multichain savings</text></g><g stroke-linecap="round" transform="translate(32 157) rotate(0 320 64)"><path d="M32 0 C185.64 -3.95, 342.3 -1.68, 608 0 C629.13 -2.55, 637.31 12.19, 640 32 C638.84 47.76, 641.78 59.54, 640 96 C639.25 116.68, 628.4 125.45, 608 128 C429.12 130.3, 249.16 131.65, 32 128 C12.94 125.56, -0.44 119.06, 0 96 C1.92 73.03, 2.62 52.17, 0 32 C-1.73 12.98, 9.75 2.49, 32 0" stroke="none" stroke-width="0" fill="#fff4cc"></path><path d="M32 0 C185.22 -0.14, 338.67 0.39, 608 0 M32 0 C237.8 1.59, 443.75 1.11, 608 0 M608 0 C629.17 -0.32, 639.17 10.61, 640 32 M608 0 C628.19 -0.09, 639.94 11.89, 640 32 M640 32 C640.31 52.75, 641.26 73.69, 640 96 M640 32 C639.79 44.96, 640.08 58, 640 96 M640 96 C640.73 118.22, 628.21 127.96, 608 128 M640 96 C639.06 116.2, 629.25 127.74, 608 128 M608 128 C461.35 127.46, 315.18 128.03, 32 128 M608 128 C484.01 128.74, 360.2 128.99, 32 128 M32 128 C11.94 128.76, 0 116.42, 0 96 M32 128 C12.08 129.04, -1.14 118.46, 0 96 M0 96 C-0.18 77.43, 0.54 58.37, 0 32 M0 96 C-0.58 75.84, -0.72 55.36, 0 32 M0 32 C1.16 10.95, 9.96 0.16, 32 0 M0 32 C-0.93 11.73, 9.77 -1.46, 32 0" stroke="#27302b" stroke-width="1.5" fill="none"></path></g><g transform="translate(52 179) rotate(0 300 31.200000000000003)"><text x="0" y="21.48046875" font-family="Helvetica, sans-serif, Segoe UI Emoji" font-size="24px" fill="#27302b" text-anchor="start" style="white-space: pre;" direction="ltr" dominant-baseline="alphabetic">Choose your goal</text><text x="0" y="51.48046875" font-family="Helvetica, sans-serif, Segoe UI Emoji" font-size="24px" fill="#27302b" text-anchor="start" style="white-space: pre;" direction="ltr" dominant-baseline="alphabetic">Target, model and selected chains</text></g><g stroke-linecap="round"><g transform="translate(352 292) rotate(0 -0.022218288424681987 13)"><path d="M0 0 C-0.51 9.54, 0.38 17.31, 0 26 M0 0 C0.29 7.29, -0.05 14.63, 0 26" stroke="#27302b" stroke-width="1.5" fill="none"></path></g><g transform="translate(352 292) rotate(0 -0.022218288424681987 13)"><path d="M-4.4 13.77 C-3.23 18.35, -1.13 21.79, 0 26 M-4.4 13.77 C-2.97 17.18, -1.94 20.63, 0 26" stroke="#27302b" stroke-width="1.5" fill="none"></path></g><g transform="translate(352 292) rotate(0 -0.022218288424681987 13)"><path d="M4.49 13.8 C2.59 18.39, 1.62 21.81, 0 26 M4.49 13.8 C3.4 17.2, 1.9 20.64, 0 26" stroke="#27302b" stroke-width="1.5" fill="none"></path></g></g><mask></mask><g stroke-linecap="round" transform="translate(32 327) rotate(0 320 64)"><path d="M32 0 C148.31 1.73, 266.47 2.25, 608 0 C628.83 -2.67, 639.15 12.35, 640 32 C642.38 56.76, 642.77 75.26, 640 96 C637.68 118.07, 630.5 126.36, 608 128 C468.59 126.01, 330.51 127.76, 32 128 C8.34 125.93, 1.58 117.45, 0 96 C1.68 80.62, 2.14 69.1, 0 32 C0.5 8.06, 12.71 -0.36, 32 0" stroke="none" stroke-width="0" fill="#deedfb"></path><path d="M32 0 C186.5 0.88, 340.48 1.19, 608 0 M32 0 C250.81 -0.31, 469.31 -0.74, 608 0 M608 0 C628.35 0.82, 639.57 11.83, 640 32 M608 0 C628.76 0.44, 641.47 11.35, 640 32 M640 32 C640.48 49.06, 639.62 67.06, 640 96 M640 32 C640.13 50.51, 640.15 67.84, 640 96 M640 96 C639.9 117.74, 630.45 128.4, 608 128 M640 96 C639.34 118.68, 629.22 128.73, 608 128 M608 128 C480.65 128.96, 352.01 129.13, 32 128 M608 128 C475.62 129.29, 343.35 128.92, 32 128 M32 128 C11.85 128.02, -1.11 117.24, 0 96 M32 128 C11.04 126.91, -0.17 115.86, 0 96 M0 96 C1.23 80.55, -0.58 67.17, 0 32 M0 96 C-0.49 73.74, -0.51 52.16, 0 32 M0 32 C1.28 10.22, 11.37 -0.22, 32 0 M0 32 C1.32 11.05, 10.84 -1.15, 32 0" stroke="#27302b" stroke-width="1.5" fill="none"></path></g><g transform="translate(52 349) rotate(0 300 31.19999999999999)"><text x="0" y="21.48046875" font-family="Helvetica, sans-serif, Segoe UI Emoji" font-size="24px" fill="#27302b" text-anchor="start" style="white-space: pre;" direction="ltr" dominant-baseline="alphabetic">Prepare your vaults</text><text x="0" y="51.48046875" font-family="Helvetica, sans-serif, Segoe UI Emoji" font-size="24px" fill="#27302b" text-anchor="start" style="white-space: pre;" direction="ltr" dominant-baseline="alphabetic">Confirm setup; wait for linked participants</text></g><g stroke-linecap="round"><g transform="translate(352 462) rotate(0 0.12134664509338222 13)"><path d="M0 0 C0.05 9.44, 0.58 18.27, 0 26 M0 0 C-0.08 7.76, 0.06 15.73, 0 26" stroke="#27302b" stroke-width="1.5" fill="none"></path></g><g transform="translate(352 462) rotate(0 0.12134664509338222 13)"><path d="M-4.43 13.78 C-2.88 18.29, -1 22.41, 0 26 M-4.43 13.78 C-3.12 17.41, -1.67 21.15, 0 26" stroke="#27302b" stroke-width="1.5" fill="none"></path></g><g transform="translate(352 462) rotate(0 0.12134664509338222 13)"><path d="M4.46 13.79 C2.93 18.29, 1.73 22.41, 0 26 M4.46 13.79 C3.05 17.38, 1.78 21.13, 0 26" stroke="#27302b" stroke-width="1.5" fill="none"></path></g></g><mask></mask><g stroke-linecap="round" transform="translate(32 497) rotate(0 320 64)"><path d="M32 0 C226.17 -1.59, 423.36 -0.5, 608 0 C628.54 -2.79, 640.99 12.5, 640 32 C638.27 52.95, 641.91 71.18, 640 96 C641.91 119.45, 626.79 127.26, 608 128 C395.19 128.41, 181.46 128.22, 32 128 C9.55 126.3, -2.2 115.84, 0 96 C-0.41 75.4, -0.19 54.62, 0 32 C2.72 8.94, 9.88 2.59, 32 0" stroke="none" stroke-width="0" fill="#ebefd2"></path><path d="M32 0 C186.73 -1.1, 342.28 -1, 608 0 M32 0 C148.09 0.78, 264.46 0.91, 608 0 M608 0 C630.14 -0.64, 639.97 10.46, 640 32 M608 0 C629.34 0.97, 640 10.82, 640 32 M640 32 C638.88 47.98, 638.81 60.43, 640 96 M640 32 C640 54.76, 639.75 77.68, 640 96 M640 96 C639.07 117.26, 630.09 128.85, 608 128 M640 96 C639.61 118.16, 629.19 126.73, 608 128 M608 128 C383.71 126.43, 158.44 126.2, 32 128 M608 128 C466.7 129.31, 325.98 129.37, 32 128 M32 128 C11.77 127.29, 0.37 118.06, 0 96 M32 128 C10.01 127.78, 0.8 116.26, 0 96 M0 96 C0.04 73.47, 0.89 52.97, 0 32 M0 96 C-0.41 72.94, -0.29 48.96, 0 32 M0 32 C-1.2 9.49, 10.18 -0.61, 32 0 M0 32 C0.58 10.37, 11.91 -0.84, 32 0" stroke="#27302b" stroke-width="1.5" fill="none"></path></g><g transform="translate(52 519) rotate(0 300 31.19999999999999)"><text x="0" y="21.48046875" font-family="Helvetica, sans-serif, Segoe UI Emoji" font-size="24px" fill="#27302b" text-anchor="start" style="white-space: pre;" direction="ltr" dominant-baseline="alphabetic">Save USDC</text><text x="0" y="51.48046875" font-family="Helvetica, sans-serif, Segoe UI Emoji" font-size="24px" fill="#27302b" text-anchor="start" style="white-space: pre;" direction="ltr" dominant-baseline="alphabetic">Local deposits grow this goalâ€™s reserves</text></g><g stroke-linecap="round"><g transform="translate(352 632) rotate(0 0.022265761465348533 13)"><path d="M0 0 C0.61 9.33, -0.52 17.93, 0 26 M0 0 C-0.28 8.23, 0.33 16.83, 0 26" stroke="#27302b" stroke-width="1.5" fill="none"></path></g><g transform="translate(352 632) rotate(0 0.022265761465348533 13)"><path d="M-4.31 13.73 C-2.42 18.17, -1.66 22.15, 0 26 M-4.31 13.73 C-3.08 17.56, -1.27 21.63, 0 26" stroke="#27302b" stroke-width="1.5" fill="none"></path></g><g transform="translate(352 632) rotate(0 0.022265761465348533 13)"><path d="M4.58 13.83 C3.37 18.26, 1.04 22.21, 0 26 M4.58 13.83 C2.9 17.64, 1.79 21.67, 0 26" stroke="#27302b" stroke-width="1.5" fill="none"></path></g></g><mask></mask><g stroke-linecap="round" transform="translate(32 667) rotate(0 320 64)"><path d="M32 0 C188.83 4.09, 347.53 3.43, 608 0 C628.25 2.89, 642.84 12.66, 640 32 C641.81 49.15, 642.9 61.3, 640 96 C640.34 115.04, 628.88 128.17, 608 128 C436.98 124.12, 265.12 124.33, 32 128 C10.76 126.66, -0.18 120.03, 0 96 C-0.65 82.99, -0.67 65.75, 0 32 C-0.85 9.82, 12.84 -0.26, 32 0" stroke="none" stroke-width="0" fill="#deedfb"></path><path d="M32 0 C188.01 -0.08, 344.09 0.85, 608 0 M32 0 C160.57 -1.12, 289.5 -0.94, 608 0 M608 0 C629.32 0.5, 640.36 11.68, 640 32 M608 0 C629.92 -1.48, 638.54 10.28, 640 32 M640 32 C639.89 57.09, 640.6 79.4, 640 96 M640 32 C639.05 47.51, 639.82 61.92, 640 96 M640 96 C640.85 116.77, 629.73 129.29, 608 128 M640 96 C639.89 117.65, 629.16 127.72, 608 128 M608 128 C401.98 127.93, 195.27 127.3, 32 128 M608 128 C458.31 129.34, 308.61 129.3, 32 128 M32 128 C11.68 129.16, -0.74 116.28, 0 96 M32 128 C11.96 128.64, -1.23 116.65, 0 96 M0 96 C0.62 79.18, -1.07 61.77, 0 32 M0 96 C0.98 70.84, -0.08 45.76, 0 32 M0 32 C-1.08 11.35, 11.59 -1, 32 0 M0 32 C-0.17 9.69, 9.99 -0.54, 32 0" stroke="#27302b" stroke-width="1.5" fill="none"></path></g><g transform="translate(52 689) rotate(0 300 31.19999999999999)"><text x="0" y="21.48046875" font-family="Helvetica, sans-serif, Segoe UI Emoji" font-size="24px" fill="#27302b" text-anchor="start" style="white-space: pre;" direction="ltr" dominant-baseline="alphabetic">Verify completion</text><text x="0" y="51.48046875" font-family="Helvetica, sans-serif, Segoe UI Emoji" font-size="24px" fill="#27302b" text-anchor="start" style="white-space: pre;" direction="ltr" dominant-baseline="alphabetic">Owner starts; every selected vault confirms</text></g><g stroke-linecap="round"><g transform="translate(352 802) rotate(0 -0.05501092619795145 13)"><path d="M0 0 C-0.13 9.22, -0.32 17.59, 0 26 M0 0 C0.17 9.35, -0.05 17.93, 0 26" stroke="#27302b" stroke-width="1.5" fill="none"></path></g><g transform="translate(352 802) rotate(0 -0.05501092619795145 13)"><path d="M-4.43 13.78 C-2.97 18.13, -1.55 21.94, 0 26 M-4.43 13.78 C-2.78 18.23, -1.37 22.16, 0 26" stroke="#27302b" stroke-width="1.5" fill="none"></path></g><g transform="translate(352 802) rotate(0 -0.05501092619795145 13)"><path d="M4.46 13.79 C2.81 18.14, 1.12 21.95, 0 26 M4.46 13.79 C3 18.22, 1.29 22.15, 0 26" stroke="#27302b" stroke-width="1.5" fill="none"></path></g></g><mask></mask><g stroke-linecap="round" transform="translate(32 837) rotate(0 320 64)"><path d="M32 0 C151.5 0.77, 271.7 0.68, 608 0 C627.95 2.77, 638.88 12.82, 640 32 C637.7 58.15, 642.04 77.02, 640 96 C638.77 116.42, 630.98 129.07, 608 128 C476.46 126.51, 346.47 127.12, 32 128 C11.97 127.03, 1.84 118.42, 0 96 C-0.88 71.98, -1.14 51.28, 0 32 C1.37 10.7, 10.01 2.7, 32 0" stroke="none" stroke-width="0" fill="#ebefd2"></path><path d="M32 0 C188.25 -1.02, 345.9 -1.35, 608 0 M32 0 C173.58 -0.03, 315.05 0.19, 608 0 M608 0 C628.51 -0.96, 640.76 10.31, 640 32 M608 0 C630.5 -0.95, 640.07 9.75, 640 32 M640 32 C640.06 53.41, 638.97 72.76, 640 96 M640 32 C640.22 51.77, 639.42 71.76, 640 96 M640 96 C640.02 116.29, 629.37 127.14, 608 128 M640 96 C640.16 117.14, 629.13 128.71, 608 128 M608 128 C420.24 128.39, 232.1 128.4, 32 128 M608 128 C449.39 129.36, 291.24 129.24, 32 128 M32 128 C11.6 128.43, 0.75 117.1, 0 96 M32 128 C10.92 126.51, -0.26 117.05, 0 96 M0 96 C-0.57 72.1, 0.4 47.58, 0 32 M0 96 C0.24 81.54, -0.7 68.16, 0 32 M0 32 C-0.96 10.62, 10.4 1.21, 32 0 M0 32 C-0.91 11.99, 11.06 -0.23, 32 0" stroke="#27302b" stroke-width="1.5" fill="none"></path></g><g transform="translate(52 859) rotate(0 300 31.19999999999999)"><text x="0" y="21.48046875" font-family="Helvetica, sans-serif, Segoe UI Emoji" font-size="24px" fill="#27302b" text-anchor="start" style="white-space: pre;" direction="ltr" dominant-baseline="alphabetic">Claim each chain</text><text x="0" y="51.48046875" font-family="Helvetica, sans-serif, Segoe UI Emoji" font-size="24px" fill="#27302b" text-anchor="start" style="white-space: pre;" direction="ltr" dominant-baseline="alphabetic">USDC returns to the recorded local owner</text></g><g stroke-linecap="round"><g transform="translate(352 972) rotate(0 0.04557265061282578 13)"><path d="M0 0 C0.44 9.11, -0.12 18.55, 0 26 M0 0 C-0.2 9.82, 0.05 19.68, 0 26" stroke="#27302b" stroke-width="1.5" fill="none"></path></g><g transform="translate(352 972) rotate(0 0.04557265061282578 13)"><path d="M-4.48 13.79 C-2.63 18.08, -1.42 22.56, 0 26 M-4.48 13.79 C-2.93 18.42, -1.1 23.08, 0 26" stroke="#27302b" stroke-width="1.5" fill="none"></path></g><g transform="translate(352 972) rotate(0 0.04557265061282578 13)"><path d="M4.42 13.77 C3.14 18.05, 1.23 22.54, 0 26 M4.42 13.77 C2.65 18.43, 1.17 23.09, 0 26" stroke="#27302b" stroke-width="1.5" fill="none"></path></g></g><mask></mask><g stroke-linecap="round" transform="translate(32 1007) rotate(0 320 64)"><path d="M32 0 C229.36 -2.55, 428.59 -2.07, 608 0 C627.66 2.65, 640.73 12.98, 640 32 C641.24 54.35, 637.23 72.94, 640 96 C637.2 117.81, 627.27 129.97, 608 128 C403.05 128.91, 197.42 129.9, 32 128 C13.17 127.4, -1.94 116.81, 0 96 C-1.12 79.57, -1.62 62.41, 0 32 C-2.21 11.58, 12.97 -0.15, 32 0" stroke="none" stroke-width="0" fill="#fff4cc"></path><path d="M32 0 C189.52 0, 346.67 -0.54, 608 0 M32 0 C186.06 1.07, 340.61 1.33, 608 0 M608 0 C630.29 0.18, 641.16 11.54, 640 32 M608 0 C628.09 -0.42, 638.6 9.22, 640 32 M640 32 C641.06 49.73, 640.76 66.13, 640 96 M640 32 C640.09 57.32, 640.32 82.9, 640 96 M640 96 C639.19 118.41, 629.02 127.58, 608 128 M640 96 C640.44 116.63, 629.1 126.7, 608 128 M608 128 C438.5 129.89, 268.93 129.5, 32 128 M608 128 C441 126.39, 273.86 126.69, 32 128 M32 128 C11.51 127.7, -0.37 117.92, 0 96 M32 128 C9.89 127.37, 0.71 117.44, 0 96 M0 96 C0.01 77.81, 1.05 58.98, 0 32 M0 96 C0.33 80.73, -0.49 64.96, 0 32 M0 32 C-0.84 9.89, 11.81 0.82, 32 0 M0 32 C1.34 11.31, 12.13 0.08, 32 0" stroke="#27302b" stroke-width="1.5" fill="none"></path></g><g transform="translate(52 1029) rotate(0 300 31.200000000000045)"><text x="0" y="21.48046875" font-family="Helvetica, sans-serif, Segoe UI Emoji" font-size="24px" fill="#27302b" text-anchor="start" style="white-space: pre;" direction="ltr" dominant-baseline="alphabetic">Keep your completed build</text><text x="0" y="51.48046875" font-family="Helvetica, sans-serif, Segoe UI Emoji" font-size="24px" fill="#27302b" text-anchor="start" style="white-space: pre;" direction="ltr" dominant-baseline="alphabetic">Collection changes money, not the achievement</text></g><g transform="translate(32 1199) rotate(0 320 13)"><text x="0" y="17.900390625" font-family="Helvetica, sans-serif, Segoe UI Emoji" font-size="20px" fill="#27302b" text-anchor="start" style="white-space: pre;" direction="ltr" dominant-baseline="alphabetic">Messages coordinate state. Funds stay on their original chains.</text></g></svg>